<svg width="39" height="39" viewBox="0 0 39 39" fill="none" xmlns="http://www.w3.org/2000/svg">
<circle cx="19.5" cy="19.5" r="19.5" fill="#3855A3"/>
<path opacity="0.6" d="M14.8944 10.5528C14.725 10.214 14.3788 10 14 10C13.6212 10 13.275 10.214 13.1056 10.5528L12.7019 11.3602C12.3775 12.009 12.3047 12.1281 12.2164 12.2164C12.1281 12.3047 12.009 12.3775 11.3602 12.7019L10.5528 13.1056C10.214 13.275 10 13.6212 10 14C10 14.3788 10.214 14.725 10.5528 14.8944L11.3602 15.2981C12.009 15.6225 12.1281 15.6953 12.2164 15.7836C12.3047 15.8719 12.3775 15.991 12.7019 16.6398L13.1056 17.4472C13.275 17.786 13.6212 18 14 18C14.3788 18 14.725 17.786 14.8944 17.4472L15.2981 16.6398C15.6225 15.991 15.6953 15.8719 15.7836 15.7836C15.8719 15.6953 15.991 15.6225 16.6398 15.2981L17.4472 14.8944C17.786 14.725 18 14.3788 18 14C18 13.6212 17.786 13.275 17.4472 13.1056L16.6398 12.7019C15.991 12.3775 15.8719 12.3047 15.7836 12.2164C15.6953 12.1281 15.6225 12.009 15.2981 11.3602L14.8944 10.5528Z" fill="white"/>
<path opacity="0.9" d="M24.8944 12.5528C24.725 12.214 24.3788 12 24 12C23.6212 12 23.275 12.214 23.1056 12.5528L22.2981 14.1677C21.6782 15.4075 21.4577 15.8221 21.1399 16.1399C20.8221 16.4577 20.4075 16.6782 19.1676 17.2981L17.5528 18.1056C17.214 18.275 17 18.6212 17 19C17 19.3788 17.214 19.725 17.5528 19.8944L19.1676 20.7019C20.4075 21.3218 20.8221 21.5423 21.1399 21.8601C21.4577 22.1779 21.6782 22.5925 22.2981 23.8324L23.1056 25.4472C23.275 25.786 23.6212 26 24 26C24.3788 26 24.725 25.786 24.8944 25.4472L25.7019 23.8324C26.3218 22.5925 26.5423 22.1779 26.8601 21.8601C27.1779 21.5423 27.5925 21.3218 28.8324 20.7019L30.4472 19.8944C30.786 19.725 31 19.3788 31 19C31 18.6212 30.786 18.275 30.4472 18.1056L28.8324 17.2981C27.5925 16.6782 27.1779 16.4577 26.8601 16.1399C26.5423 15.8221 26.3218 15.4075 25.7019 14.1677L24.8944 12.5528Z" fill="white"/>
<path d="M14.8944 20.5528C14.725 20.214 14.3788 20 14 20C13.6212 20 13.275 20.214 13.1056 20.5528L12.9648 20.8343C12.3449 22.0742 12.1244 22.4888 11.8066 22.8066C11.4888 23.1243 11.0742 23.3449 9.83431 23.9648L9.55279 24.1056C9.214 24.275 9 24.6212 9 25C9 25.3788 9.214 25.725 9.55279 25.8944L9.83431 26.0352C11.0742 26.6551 11.4888 26.8757 11.8066 27.1934C12.1244 27.5112 12.3449 27.9258 12.9648 29.1657L13.1056 29.4472C13.275 29.786 13.6212 30 14 30C14.3788 30 14.725 29.786 14.8944 29.4472L15.0352 29.1657C15.6551 27.9258 15.8757 27.5112 16.1934 27.1934C16.5112 26.8757 16.9258 26.6551 18.1657 26.0352L18.4472 25.8944C18.786 25.725 19 25.3788 19 25C19 24.6212 18.786 24.275 18.4472 24.1056L18.1657 23.9648C16.9258 23.3449 16.5112 23.1243 16.1934 22.8066C15.8757 22.4888 15.6551 22.0742 15.0352 20.8343L14.8944 20.5528Z" fill="white"/>
</svg>
